<?xml version="1.0" encoding="UTF-8" standalone="no"?>
<!DOCTYPE svg PUBLIC "-//W3C//DTD SVG 1.1//EN"
 "http://www.w3.org/Graphics/SVG/1.1/DTD/svg11.dtd">
<!-- Generated by graphviz version 2.40.1 (20161225.0304)
 -->
<!-- Title: dependencies Pages: 1 -->
<svg width="1699pt" height="211pt"
 viewBox="0.00 0.00 1699.00 211.00" xmlns="http://www.w3.org/2000/svg" xmlns:xlink="http://www.w3.org/1999/xlink">
<g id="graph0" class="graph" transform="scale(1 1) rotate(0) translate(4 207)">
<title>dependencies</title>
<polygon fill="#ffffff" stroke="transparent" points="-4,4 -4,-207 1695,-207 1695,4 -4,4"/>
<text text-anchor="start" x="824.5091" y="-42.4" font-family="sans-serif" font-weight="bold" font-size="14.00" fill="#000000">Legend</text>
<polygon fill="#ffffb3" stroke="transparent" points="611.5,-10 611.5,-30 631.5,-30 631.5,-10 611.5,-10"/>
<text text-anchor="start" x="635.129" y="-15.4" font-family="sans-serif" font-size="14.00" fill="#000000"> &#160;Declarations</text>
<polygon fill="#8dd3c7" stroke="transparent" points="724.5,-10 724.5,-30 744.5,-30 744.5,-10 724.5,-10"/>
<text text-anchor="start" x="748.2251" y="-15.4" font-family="sans-serif" font-size="14.00" fill="#000000"> &#160;Module</text>
<polygon fill="#80b1d3" stroke="transparent" points="810.5,-10 810.5,-30 830.5,-30 830.5,-10 810.5,-10"/>
<text text-anchor="start" x="834.2812" y="-15.4" font-family="sans-serif" font-size="14.00" fill="#000000"> &#160;Bootstrap</text>
<polygon fill="#fdb462" stroke="transparent" points="907.5,-10 907.5,-30 927.5,-30 927.5,-10 907.5,-10"/>
<text text-anchor="start" x="931.1732" y="-15.4" font-family="sans-serif" font-size="14.00" fill="#000000"> &#160;Providers</text>
<polygon fill="#fb8072" stroke="transparent" points="1003.5,-10 1003.5,-30 1023.5,-30 1023.5,-10 1003.5,-10"/>
<text text-anchor="start" x="1027.2258" y="-15.4" font-family="sans-serif" font-size="14.00" fill="#000000"> &#160;Exports</text>
<g id="clust1" class="cluster">
<title>cluster_ComponentModule</title>
<polygon fill="none" stroke="#000000" stroke-dasharray="1,5" points="8,-70 8,-195 1683,-195 1683,-70 8,-70"/>
</g>
<g id="clust2" class="cluster">
<title>cluster_ComponentModule_declarations</title>
<polygon fill="none" stroke="#000000" points="250,-78 250,-130 1675,-130 1675,-78 250,-78"/>
</g>
<g id="clust12" class="cluster">
<title>cluster_ComponentModule_imports</title>
<polygon fill="none" stroke="#000000" points="148,-78 148,-130 242,-130 242,-78 148,-78"/>
</g>
<g id="clust15" class="cluster">
<title>cluster_ComponentModule_providers</title>
<polygon fill="none" stroke="#000000" points="16,-78 16,-130 140,-130 140,-78 16,-78"/>
</g>
<!-- HomeComponent -->
<g id="node1" class="node">
<title>HomeComponent</title>
<polygon fill="#ffffb3" stroke="#000000" points="1666.5451,-122 1551.4549,-122 1551.4549,-86 1666.5451,-86 1666.5451,-122"/>
<text text-anchor="middle" x="1609" y="-99.8" font-family="Times,serif" font-size="14.00" fill="#000000">HomeComponent</text>
</g>
<!-- ComponentModule -->
<g id="node10" class="node">
<title>ComponentModule</title>
<polygon fill="#8dd3c7" stroke="#000000" points="924.3823,-187 921.3823,-191 900.3823,-191 897.3823,-187 799.6177,-187 799.6177,-151 924.3823,-151 924.3823,-187"/>
<text text-anchor="middle" x="862" y="-164.8" font-family="Times,serif" font-size="14.00" fill="#000000">ComponentModule</text>
</g>
<!-- HomeComponent&#45;&gt;ComponentModule -->
<g id="edge1" class="edge">
<title>HomeComponent&#45;&gt;ComponentModule</title>
<path fill="none" stroke="#000000" d="M1609,-122.0908C1609,-145.1328 1609,-182 1609,-182 1609,-182 934.404,-182 934.404,-182"/>
<polygon fill="#000000" stroke="#000000" points="934.404,-178.5001 924.404,-182 934.4039,-185.5001 934.404,-178.5001"/>
</g>
<!-- AboutComponent -->
<g id="node2" class="node">
<title>AboutComponent</title>
<polygon fill="#ffffb3" stroke="#000000" points="1533.3301,-122 1416.6699,-122 1416.6699,-86 1533.3301,-86 1533.3301,-122"/>
<text text-anchor="middle" x="1475" y="-99.8" font-family="Times,serif" font-size="14.00" fill="#000000">AboutComponent</text>
</g>
<!-- AboutComponent&#45;&gt;ComponentModule -->
<g id="edge2" class="edge">
<title>AboutComponent&#45;&gt;ComponentModule</title>
<path fill="none" stroke="#000000" d="M1475,-122.2843C1475,-143.3211 1475,-175 1475,-175 1475,-175 934.4358,-175 934.4358,-175"/>
<polygon fill="#000000" stroke="#000000" points="934.4358,-171.5001 924.4358,-175 934.4358,-178.5001 934.4358,-171.5001"/>
</g>
<!-- LoginComponent -->
<g id="node3" class="node">
<title>LoginComponent</title>
<polygon fill="#ffffb3" stroke="#000000" points="1398.2758,-122 1283.7242,-122 1283.7242,-86 1398.2758,-86 1398.2758,-122"/>
<text text-anchor="middle" x="1341" y="-99.8" font-family="Times,serif" font-size="14.00" fill="#000000">LoginComponent</text>
</g>
<!-- LoginComponent&#45;&gt;ComponentModule -->
<g id="edge3" class="edge">
<title>LoginComponent&#45;&gt;ComponentModule</title>
<path fill="none" stroke="#000000" d="M1341,-122.1061C1341,-141.3391 1341,-169 1341,-169 1341,-169 934.6209,-169 934.6209,-169"/>
<polygon fill="#000000" stroke="#000000" points="934.6209,-165.5001 924.6209,-169 934.6208,-172.5001 934.6209,-165.5001"/>
</g>
<!-- TaskViewComponent -->
<g id="node4" class="node">
<title>TaskViewComponent</title>
<polygon fill="#ffffb3" stroke="#000000" points="1265.3627,-122 1126.6373,-122 1126.6373,-86 1265.3627,-86 1265.3627,-122"/>
<text text-anchor="middle" x="1196" y="-99.8" font-family="Times,serif" font-size="14.00" fill="#000000">TaskViewComponent</text>
</g>
<!-- TaskViewComponent&#45;&gt;ComponentModule -->
<g id="edge4" class="edge">
<title>TaskViewComponent&#45;&gt;ComponentModule</title>
<path fill="none" stroke="#000000" d="M1196,-122.0225C1196,-139.3734 1196,-163 1196,-163 1196,-163 934.431,-163 934.431,-163"/>
<polygon fill="#000000" stroke="#000000" points="934.4311,-159.5001 924.431,-163 934.431,-166.5001 934.4311,-159.5001"/>
</g>
<!-- DashboardComponent -->
<g id="node5" class="node">
<title>DashboardComponent</title>
<polygon fill="#ffffb3" stroke="#000000" points="1108.9734,-122 967.0266,-122 967.0266,-86 1108.9734,-86 1108.9734,-122"/>
<text text-anchor="middle" x="1038" y="-99.8" font-family="Times,serif" font-size="14.00" fill="#000000">DashboardComponent</text>
</g>
<!-- DashboardComponent&#45;&gt;ComponentModule -->
<g id="edge5" class="edge">
<title>DashboardComponent&#45;&gt;ComponentModule</title>
<path fill="none" stroke="#000000" d="M1038,-122.2396C1038,-137.5706 1038,-157 1038,-157 1038,-157 934.5466,-157 934.5466,-157"/>
<polygon fill="#000000" stroke="#000000" points="934.5466,-153.5001 924.5466,-157 934.5465,-160.5001 934.5466,-153.5001"/>
</g>
<!-- KnowledgeBaseComponent -->
<g id="node6" class="node">
<title>KnowledgeBaseComponent</title>
<polygon fill="#ffffb3" stroke="#000000" points="948.5758,-122 775.4242,-122 775.4242,-86 948.5758,-86 948.5758,-122"/>
<text text-anchor="middle" x="862" y="-99.8" font-family="Times,serif" font-size="14.00" fill="#000000">KnowledgeBaseComponent</text>
</g>
<!-- KnowledgeBaseComponent&#45;&gt;ComponentModule -->
<g id="edge6" class="edge">
<title>KnowledgeBaseComponent&#45;&gt;ComponentModule</title>
<path fill="none" stroke="#000000" d="M862,-122.1061C862,-122.1061 862,-140.991 862,-140.991"/>
<polygon fill="#000000" stroke="#000000" points="858.5001,-140.9909 862,-150.991 865.5001,-140.991 858.5001,-140.9909"/>
</g>
<!-- SignUpComponent -->
<g id="node7" class="node">
<title>SignUpComponent</title>
<polygon fill="#ffffb3" stroke="#000000" points="757.1123,-122 632.8877,-122 632.8877,-86 757.1123,-86 757.1123,-122"/>
<text text-anchor="middle" x="695" y="-99.8" font-family="Times,serif" font-size="14.00" fill="#000000">SignUpComponent</text>
</g>
<!-- SignUpComponent&#45;&gt;ComponentModule -->
<g id="edge7" class="edge">
<title>SignUpComponent&#45;&gt;ComponentModule</title>
<path fill="none" stroke="#000000" d="M695,-122.2396C695,-137.5706 695,-157 695,-157 695,-157 789.3402,-157 789.3402,-157"/>
<polygon fill="#000000" stroke="#000000" points="789.3403,-160.5001 799.3402,-157 789.3402,-153.5001 789.3403,-160.5001"/>
</g>
<!-- TrackHoursComponent -->
<g id="node8" class="node">
<title>TrackHoursComponent</title>
<polygon fill="#ffffb3" stroke="#000000" points="615.1867,-122 466.8133,-122 466.8133,-86 615.1867,-86 615.1867,-122"/>
<text text-anchor="middle" x="541" y="-99.8" font-family="Times,serif" font-size="14.00" fill="#000000">TrackHoursComponent</text>
</g>
<!-- TrackHoursComponent&#45;&gt;ComponentModule -->
<g id="edge8" class="edge">
<title>TrackHoursComponent&#45;&gt;ComponentModule</title>
<path fill="none" stroke="#000000" d="M541,-122.0225C541,-139.3734 541,-163 541,-163 541,-163 789.3459,-163 789.3459,-163"/>
<polygon fill="#000000" stroke="#000000" points="789.346,-166.5001 799.3459,-163 789.3459,-159.5001 789.346,-166.5001"/>
</g>
<!-- DiscussionWindowComponent -->
<g id="node9" class="node">
<title>DiscussionWindowComponent</title>
<polygon fill="#ffffb3" stroke="#000000" points="448.4804,-122 257.5196,-122 257.5196,-86 448.4804,-86 448.4804,-122"/>
<text text-anchor="middle" x="353" y="-99.8" font-family="Times,serif" font-size="14.00" fill="#000000">DiscussionWindowComponent</text>
</g>
<!-- DiscussionWindowComponent&#45;&gt;ComponentModule -->
<g id="edge9" class="edge">
<title>DiscussionWindowComponent&#45;&gt;ComponentModule</title>
<path fill="none" stroke="#000000" d="M353,-122.1061C353,-141.3391 353,-169 353,-169 353,-169 789.5866,-169 789.5866,-169"/>
<polygon fill="#000000" stroke="#000000" points="789.5866,-172.5001 799.5866,-169 789.5866,-165.5001 789.5866,-172.5001"/>
</g>
<!-- ROUTING -->
<g id="node11" class="node">
<title>ROUTING</title>
<polygon fill="#8dd3c7" stroke="#000000" points="234.4762,-122 231.4762,-126 210.4762,-126 207.4762,-122 155.5238,-122 155.5238,-86 234.4762,-86 234.4762,-122"/>
<text text-anchor="middle" x="195" y="-99.8" font-family="Times,serif" font-size="14.00" fill="#000000">ROUTING</text>
</g>
<!-- ROUTING&#45;&gt;ComponentModule -->
<g id="edge10" class="edge">
<title>ROUTING&#45;&gt;ComponentModule</title>
<path fill="none" stroke="#000000" d="M195,-122.2843C195,-143.3211 195,-175 195,-175 195,-175 789.55,-175 789.55,-175"/>
<polygon fill="#000000" stroke="#000000" points="789.5501,-178.5001 799.55,-175 789.55,-171.5001 789.5501,-178.5001"/>
</g>
<!-- AuthGuard -->
<g id="node12" class="node">
<title>AuthGuard</title>
<ellipse fill="#fdb462" stroke="#000000" cx="78" cy="-104" rx="54.4566" ry="18"/>
<text text-anchor="middle" x="78" y="-99.8" font-family="Times,serif" font-size="14.00" fill="#000000">AuthGuard</text>
</g>
<!-- AuthGuard&#45;&gt;ComponentModule -->
<g id="edge11" class="edge">
<title>AuthGuard&#45;&gt;ComponentModule</title>
<path fill="none" stroke="#000000" d="M78,-122.0908C78,-145.1328 78,-182 78,-182 78,-182 789.4968,-182 789.4968,-182"/>
<polygon fill="#000000" stroke="#000000" points="789.4968,-185.5001 799.4968,-182 789.4967,-178.5001 789.4968,-185.5001"/>
</g>
</g>
</svg>
